<svg viewBox="0 0 24 24" xmlns="http://www.w3.org/2000/svg">
    <path d="M17.8657 22.9865C15.2003 23.2302 12.9717 20.1069 11.2632 18.5227C10.3994 24.747 0.993581 24.157 1 17.8428C1.00321 15.1909 1 8.70999 1 6.14137C1 5.21782 1.25369 4.28786 1.72896 3.499C2.63133 1.96937 4.37506 0.981685 6.15089 1.00093C8.82589 1.00413 15.2677 0.997719 17.8657 1.00093C24.1854 1.00093 24.786 10.4032 18.54 11.2497L21.5041 14.2096C24.7602 17.272 22.3165 23.1212 17.8657 22.9865ZM16.4302 19.2826C18.2671 21.1747 21.1989 18.2437 19.3075 16.4094L14.1694 11.2786H11.2954C11.2954 11.5576 11.2954 13.9498 11.2954 14.1519L15.7365 18.5868L16.4302 19.2826ZM4.11173 17.8461C4.06999 20.4756 8.22217 20.4853 8.18043 17.8461V6.14137C8.21575 4.8298 6.82848 3.7876 5.57607 4.19165C5.52149 4.20769 5.47011 4.22372 5.42193 4.24296C4.63517 4.53478 4.08926 5.33967 4.11173 6.17985V17.8461ZM17.8657 8.17125C20.5054 8.21293 20.5021 4.06659 17.8657 4.10828H10.8875C11.4174 5.22423 11.2825 6.96229 11.2922 8.17125C11.6711 8.17125 17.6793 8.17125 17.8657 8.17125Z"
          fill="currentColor"/>
</svg>
