<svg xmlns="http://www.w3.org/2000/svg" fill="none" viewBox="0 0 25 24">
    <path fill="currentColor"
          d="M23.375 10v14H20.84V10h2.536ZM8.707 24H6l4.929-14h3.13l4.936 14h-2.707l-3.74-11.129h-.108L8.707 24Zm.089-5.49h7.383v2.038H8.796V18.51ZM9.8 4.239A5.167 5.167 0 0 1 5.74.17c-.05-.231-.44-.231-.49 0A5.142 5.142 0 0 1 1.2 4.239c-.12.02-.2.13-.2.251 0 .12.08.221.2.251A5.167 5.167 0 0 1 5.26 8.81c.02.12.13.201.25.201s.22-.08.25-.2A5.167 5.167 0 0 1 9.82 4.74c.12-.02.2-.13.2-.251 0-.12-.08-.221-.2-.251H9.8ZM17.866 4.826a3.445 3.445 0 0 1-2.706-2.712c-.033-.154-.294-.154-.327 0a3.428 3.428 0 0 1-2.7 2.712.166.166 0 0 0-.133.167c0 .08.053.148.134.168a3.445 3.445 0 0 1 2.706 2.712c.013.08.087.134.167.134.08 0 .147-.054.167-.134A3.445 3.445 0 0 1 17.88 5.16a.166.166 0 0 0 .133-.168.171.171 0 0 0-.133-.167h-.014ZM6.866 13.826a3.445 3.445 0 0 1-2.706-2.712c-.033-.154-.294-.154-.327 0a3.428 3.428 0 0 1-2.7 2.712.166.166 0 0 0-.133.167c0 .08.053.148.134.168a3.445 3.445 0 0 1 2.706 2.712c.013.08.087.134.167.134.08 0 .147-.054.167-.134A3.445 3.445 0 0 1 6.88 14.16a.166.166 0 0 0 .133-.168.171.171 0 0 0-.133-.167h-.014Z"/>
</svg>