<svg xmlns="http://www.w3.org/2000/svg" viewBox="0 0 24 24">
    <path fill="currentColor"
          d="M6.821 9.973c0 .305.032.552.087.733.063.181.142.38.253.594a.37.37 0 0 1 .055.19c0 .082-.047.164-.15.246l-.497.347a.369.369 0 0 1-.206.074c-.079 0-.158-.041-.237-.116a2.543 2.543 0 0 1-.284-.387 6.472 6.472 0 0 1-.245-.486c-.615.758-1.389 1.137-2.32 1.137-.664 0-1.193-.198-1.58-.593-.386-.396-.584-.923-.584-1.583 0-.7.237-1.269.719-1.698.481-.428 1.12-.642 1.934-.642.268 0 .545.024.837.066.292.04.592.107.908.18v-.6c0-.627-.127-1.064-.371-1.32-.253-.255-.68-.379-1.287-.379-.277 0-.56.033-.853.108a6.099 6.099 0 0 0-.853.28c-.126.057-.22.09-.276.107a.466.466 0 0 1-.126.025c-.11 0-.166-.083-.166-.256v-.404c0-.132.016-.23.055-.288a.595.595 0 0 1 .221-.173c.277-.149.608-.272.995-.371a4.595 4.595 0 0 1 1.232-.157c.94 0 1.626.223 2.068.668.434.445.655 1.12.655 2.027v2.67h.016Zm-3.205 1.252c.26 0 .529-.049.813-.148.284-.099.537-.28.75-.527.126-.157.221-.33.268-.528.048-.198.08-.437.08-.717V8.96a6.345 6.345 0 0 0-.727-.14 5.703 5.703 0 0 0-.742-.05c-.529 0-.916.108-1.176.33-.26.223-.387.536-.387.948 0 .387.095.676.292.873.19.207.466.305.829.305Zm6.34.89c-.143 0-.237-.024-.3-.082-.064-.05-.119-.165-.166-.321L7.634 5.34a1.499 1.499 0 0 1-.07-.33c0-.132.062-.206.189-.206h.773c.15 0 .253.025.308.083.063.049.11.164.158.32l1.326 5.457 1.232-5.456c.04-.165.087-.272.15-.321a.526.526 0 0 1 .316-.083h.632c.15 0 .252.025.315.083.063.049.119.164.15.32l1.248 5.523 1.365-5.522c.048-.165.103-.272.158-.321a.5.5 0 0 1 .308-.083h.734c.127 0 .198.066.198.206 0 .041-.008.083-.016.132a1.22 1.22 0 0 1-.055.206l-1.903 6.37c-.047.166-.103.273-.166.322a.49.49 0 0 1-.3.083h-.679c-.15 0-.252-.025-.315-.083-.064-.057-.119-.165-.15-.33l-1.224-5.315-1.216 5.308c-.04.164-.087.271-.15.33-.063.057-.174.082-.316.082h-.679Zm10.144.223c-.41 0-.82-.05-1.216-.148-.394-.1-.702-.206-.908-.33-.126-.074-.213-.156-.244-.23a.603.603 0 0 1-.048-.232v-.42c0-.173.063-.255.182-.255a.43.43 0 0 1 .142.024c.047.017.118.05.197.083.269.123.56.222.869.288.316.066.623.1.94.1.497 0 .884-.091 1.152-.273a.897.897 0 0 0 .41-.783c0-.23-.07-.42-.213-.577-.142-.156-.41-.296-.797-.428l-1.145-.371c-.576-.19-1.002-.47-1.263-.84a2.02 2.02 0 0 1-.395-1.196c0-.346.071-.65.213-.915.143-.263.332-.494.569-.675.237-.19.505-.33.82-.43.317-.098.648-.14.996-.14.173 0 .355.01.529.034.181.025.347.057.513.09.158.042.308.083.45.132.142.05.252.1.331.149a.69.69 0 0 1 .237.206.46.46 0 0 1 .071.272v.387c0 .173-.063.264-.181.264a.797.797 0 0 1-.3-.1 3.481 3.481 0 0 0-1.516-.32c-.45 0-.805.074-1.05.23-.245.157-.371.396-.371.734 0 .23.079.428.237.585.157.157.45.313.868.453l1.121.371c.569.19.98.453 1.224.791s.363.726.363 1.154c0 .354-.071.676-.205.956-.142.28-.332.528-.577.726a2.507 2.507 0 0 1-.876.461 3.608 3.608 0 0 1-1.129.173Z"/>
    <path fill="currentColor" fill-rule="evenodd"
          d="M21.592 16.343c-2.597 2.003-6.37 3.066-9.615 3.066-4.548 0-8.645-1.755-11.74-4.673-.245-.23-.024-.544.268-.363 3.348 2.028 7.477 3.256 11.748 3.256 2.881 0 6.047-.626 8.96-1.912.434-.206.806.297.38.626Z"
          clip-rule="evenodd"/>
    <path fill="currentColor" fill-rule="evenodd"
          d="M22.673 15.058c-.331-.445-2.195-.214-3.04-.107-.252.033-.291-.198-.063-.371 1.485-1.088 3.924-.775 4.208-.412.285.37-.079 2.917-1.468 4.137-.213.19-.418.09-.324-.157.316-.816 1.019-2.653.687-3.09Z"
          clip-rule="evenodd"/>
</svg>