<?xml version="1.0" encoding="utf-8"?>
<!-- Generator: Adobe Illustrator 27.9.6, SVG Export Plug-In . SVG Version: 9.03 Build 54986)  -->
<svg version="1.1" id="Layer_1" xmlns="http://www.w3.org/2000/svg" xmlns:xlink="http://www.w3.org/1999/xlink" x="0px" y="0px"
	 viewBox="0 0 132 85.1" style="enable-background:new 0 0 132 85.1;" xml:space="preserve">
<style type="text/css">
	.st0{fill:#4C4C4C;}
	.st1{fill:#2F2F2F;}
	.st2{fill:#454545;}
</style>
<g id="Logo" transform="translate(-471.45 -246.19)">
	<circle id="Ellipse_1" class="st0" cx="569.8" cy="319.7" r="9.6"/>
	<g id="Group_56" transform="translate(471.45 246.19)">
		<path id="Path_504" class="st1" d="M38.4,48.2h-6.5c0,0-0.1,0-0.1,0.1c0,0,0,0,0,0v6c0,0,0,0.1,0.1,0.1c0,0,0,0,0,0h6.4
			c2.2,0,3.5-1.2,3.5-3.2c0-1.7-1.3-3-3-3.1C38.7,48.2,38.5,48.2,38.4,48.2L38.4,48.2z"/>
		<path id="Path_505" class="st1" d="M31.9,43.5h6c1.4,0.1,2.7-0.7,3.2-2c0.5-1.7-0.4-3.4-2.1-3.9c-0.3-0.1-0.6-0.1-1-0.1h-6.2
			c0,0-0.1,0-0.1,0.1c0,0,0,0,0,0L31.9,43.5C31.8,43.4,31.8,43.5,31.9,43.5L31.9,43.5z"/>
		<path id="Path_506" class="st1" d="M66.3,37.7h-6.5c0,0-0.1,0-0.1,0.1c0,0,0,0,0,0v6.6c0,0,0,0.1,0.1,0.1c0,0,0,0,0,0h6.5
			c2.5,0,4.1-1.4,4.1-3.4C70.4,39.1,68.8,37.7,66.3,37.7z"/>
		<path id="Path_507" class="st1" d="M81.4,31.9C81.4,31.8,81.4,31.8,81.4,31.9C81.5,31.8,81.5,31.8,81.4,31.9l2.3-0.1
			C77.8,9,54.5-4.6,31.8,1.4S-4.6,30.5,1.4,53.3C7.3,76,30.5,89.7,53.3,83.7c12.5-3.3,22.8-12,28.1-23.8V31.9z M39.5,60.1H24.9
			c0,0-0.1,0-0.1-0.1c0,0,0,0,0,0V31.9c0,0,0-0.1,0.1-0.1c0,0,0,0,0,0h14.6c5.2,0,8.6,3.1,8.6,7.7c0.2,2.9-1.8,5.4-4.6,5.9v0.2
			c2.6,0.2,5.4,2.2,5.4,6.5C48.8,56.8,45.7,60.1,39.5,60.1L39.5,60.1z M70.3,60.1C70.3,60.1,70.3,60,70.3,60.1l-8.5-9.7
			c0,0,0,0-0.1,0h-1.9c0,0-0.1,0-0.1,0.1c0,0,0,0,0,0V60c0,0,0,0.1-0.1,0.1c0,0,0,0,0,0h-6.8c0,0-0.1,0-0.1-0.1c0,0,0,0,0,0V31.9
			c0,0,0-0.1,0.1-0.1c0,0,0,0,0,0h14.2c6.1,0,10.2,3.7,10.2,9.2c0,4.6-2.8,7.9-7.3,9c0,0-0.1,0-0.1,0.1c0,0,0,0,0,0l8.7,9.8
			c0,0,0,0.1,0,0.1c0,0,0,0-0.1,0L70.3,60.1z"/>
	</g>
	<g id="Group_57" transform="translate(557.15 259.772)">
		<path id="Path_508" class="st2" d="M26.5,41.4C26.5,41.3,26.4,41.3,26.5,41.4l-11.9,0c0,0-0.1,0-0.1,0l-1.3,3.4
			c4.7,2.1,10.1,2.6,15.1,1.4L26.5,41.4z"/>
		<path id="Path_509" class="st2" d="M22.9,0C11.9,0,2.4,7.6,0,18.2h2.6c0,0,0.1,0,0.1,0.1c0,0,0,0,0,0v17.1c1.3,2.1,2.9,4,4.7,5.7
			l9.5-22.8c0,0,0,0,0.1,0h7c0,0,0.1,0,0.1,0l10.6,25.4c11.2-6.5,14.9-20.9,8.4-32.1C38.9,4.4,31.2,0,22.9,0L22.9,0z"/>
		<path id="Path_510" class="st2" d="M24,35.3C24.1,35.3,24.1,35.3,24,35.3c0.1-0.1,0.1-0.1,0.1-0.1l-3.5-9c0,0-0.1-0.1-0.1,0
			c0,0,0,0,0,0l-3.5,9c0,0,0,0.1,0,0.1c0,0,0,0,0,0H24z"/>
	</g>
</g>
</svg>
