<svg viewBox="0.7 1 18 18" xmlns="http://www.w3.org/2000/svg">
    <path
            d="M13.0751 6.22728C12.2197 5.40152 11.1318 4.98106 9.92005 4.98106C7.77044 4.98106 5.95096 6.44698 5.30195 8.41668C5.13689 8.91668 5.0431 9.45078 5.0431 10C5.0431 10.5493 5.13688 11.0833 5.30194 11.5833C5.95095 13.553 7.77044 15.0189 9.92005 15.0189C11.0305 15.0189 11.9759 14.7235 12.7149 14.2235C13.589 13.6326 14.1705 12.75 14.3618 11.7084H9.92005V8.48487H17.6932C17.7907 9.03032 17.8432 9.59851 17.8432 10.1894C17.8432 12.7273 16.9429 14.8637 15.3822 16.3144C14.0167 17.5871 12.1484 18.3333 9.92005 18.3333C6.69377 18.3333 3.90266 16.4659 2.54462 13.7424C1.98564 12.6174 1.66675 11.3447 1.66675 10C1.66675 8.65532 1.98563 7.3826 2.5446 6.25759C3.90264 3.5341 6.69376 1.66666 9.92005 1.66666C12.1447 1.66666 14.0129 2.49242 15.4423 3.83712L13.0751 6.22728Z"
            fill="currentColor"/>
</svg>
